<mxGraphModel dx="0" dy="0" grid="1" gridSize="10" guides="1" tooltips="1" connect="1" arrows="1" fold="1" page="0" pageScale="1" background="none" math="0" shadow="0">
  <root>
    <mxCell id="0" />
    <mxCell id="1" parent="0" />
    <mxCell id="node0" parent="1" vertex="1" value="&lt;p style=&quot;margin:0px;margin-top:4px;text-align:center;&quot;&gt;&lt;b&gt;Document&lt;/b&gt;&lt;/p&gt;&lt;hr size=&quot;1&quot;/&gt;&lt;p style=&quot;margin:0 0 0 4px;line-height:1.6;&quot;&gt;- authors: String&lt;br/&gt;- status: String&lt;br/&gt;- documentID: int&lt;br/&gt;- fileName: String&lt;br/&gt;- documentName: String&lt;br/&gt;- tagName: String&lt;br/&gt;- quantity: int&lt;/p&gt;&lt;hr size=&quot;1&quot;/&gt;&lt;p style=&quot;margin:0 0 0 4px;line-height:1.6;&quot;&gt;+ getAuthors(): String&lt;br/&gt;+ setQuantity(int): void&lt;br/&gt;+ getTagsByDocumentID(int): String&lt;br/&gt;+ getTagName(): String&lt;br/&gt;+ getDocumentName(): String&lt;br/&gt;+ getSpecificDocumentIDFromDB(String): int&lt;br/&gt;+ getFileName(): String&lt;br/&gt;+ getQuantity(): int&lt;br/&gt;+ getDocumentID(): int&lt;br/&gt;+ getStatus(): String&lt;/p&gt;" style="verticalAlign=top;align=left;overflow=fill;fontSize=14;fontFamily=Helvetica;html=1;rounded=0;shadow=0;comic=0;labelBackgroundColor=none;strokeWidth=1;">
      <mxGeometry x="224" y="167" width="309" height="448" as="geometry" />
    </mxCell>
    <mxCell id="node2" parent="1" vertex="1" value="&lt;p style=&quot;margin:0px;margin-top:4px;text-align:center;&quot;&gt;&lt;b&gt;Report&lt;/b&gt;&lt;/p&gt;&lt;hr size=&quot;1&quot;/&gt;&lt;p style=&quot;margin:0 0 0 4px;line-height:1.6;&quot;&gt;- reportID: int&lt;br/&gt;- userID: int&lt;br/&gt;- content: String&lt;br/&gt;- title: String&lt;br/&gt;- status: String&lt;br/&gt;- reportType: String&lt;/p&gt;&lt;hr size=&quot;1&quot;/&gt;&lt;p style=&quot;margin:0 0 0 4px;line-height:1.6;&quot;&gt;+ getReportType(): String&lt;br/&gt;+ getReportID(): int&lt;br/&gt;+ getUserID(): int&lt;br/&gt;+ getContent(): String&lt;br/&gt;+ getStatus(): String&lt;br/&gt;+ setStatus(String): void&lt;br/&gt;+ getTitle(): String&lt;/p&gt;" style="verticalAlign=top;align=left;overflow=fill;fontSize=14;fontFamily=Helvetica;html=1;rounded=0;shadow=0;comic=0;labelBackgroundColor=none;strokeWidth=1;">
      <mxGeometry x="-51" y="134" width="191" height="352" as="geometry" />
    </mxCell>
    <mxCell id="node1" parent="1" vertex="1" value="&lt;p style=&quot;margin:0px;margin-top:4px;text-align:center;&quot;&gt;&lt;b&gt;User&lt;/b&gt;&lt;/p&gt;&lt;hr size=&quot;1&quot;/&gt;&lt;p style=&quot;margin:0 0 0 4px;line-height:1.6;&quot;&gt;- password: String&lt;br/&gt;- userFullName: String&lt;br/&gt;- dateOfBirth: LocalDate&lt;br/&gt;- ID: int&lt;br/&gt;- username: String&lt;br/&gt;- gmail: String&lt;br/&gt;- phoneNumber: String&lt;br/&gt;- role: String&lt;br/&gt;- avatar: String&lt;/p&gt;&lt;hr size=&quot;1&quot;/&gt;&lt;p style=&quot;margin:0 0 0 4px;line-height:1.6;&quot;&gt;+ getID(): int&lt;br/&gt;+ getGmail(): String&lt;br/&gt;+ setGmail(String): void&lt;br/&gt;+ getUserFullName(): String&lt;br/&gt;+ setRole(String): void&lt;br/&gt;+ setPassword(String): void&lt;br/&gt;+ getDateOfBirth(): LocalDate&lt;br/&gt;+ getUsername(): String&lt;br/&gt;+ setUsername(String): void&lt;br/&gt;+ setDateOfBirth(LocalDate): void&lt;br/&gt;+ getPhoneNumber(): String&lt;br/&gt;+ getRole(): String&lt;br/&gt;+ setPhoneNumber(String): void&lt;br/&gt;+ getAvatar(): String&lt;br/&gt;+ setUserFullName(String): void&lt;br/&gt;+ getPassword(): String&lt;br/&gt;+ loadUserData(ResultSet): void&lt;br/&gt;+ setID(int): void&lt;br/&gt;+ setAvatar(String): void&lt;/p&gt;" style="verticalAlign=top;align=left;overflow=fill;fontSize=14;fontFamily=Helvetica;html=1;rounded=0;shadow=0;comic=0;labelBackgroundColor=none;strokeWidth=1;">
      <mxGeometry x="-431" y="151" width="243" height="712" as="geometry" />
    </mxCell>
  </root>
</mxGraphModel>